<svg id="Outlined-cloud_upload" xmlns="http://www.w3.org/2000/svg" width="30" height="30" viewBox="0 0 30 30">
  <rect id="Rectangle_14066" data-name="Rectangle 14066" width="30" height="30" fill="#6f6b69" opacity="0"/>
  <path id="Path_39669" data-name="Path 39669" d="M338.25,217.749h.675a5.608,5.608,0,0,0,.15-11.212,7.132,7.132,0,0,0-1.2-3.925,8.507,8.507,0,0,0-14.75,1.5A6.943,6.943,0,0,0,317,210.9a6.852,6.852,0,0,0,4.85,6.5,6.54,6.54,0,0,0,1.387.3v-2.525a5.066,5.066,0,0,1-.625-.15A4.358,4.358,0,0,1,319.5,210.9a4.466,4.466,0,0,1,4.563-4.35,1.246,1.246,0,0,0,1.225-.975c.612-2.75,3.638-4.525,6.737-3.963A5.737,5.737,0,0,1,335.788,204a4.52,4.52,0,0,1,.675,3.513,1.248,1.248,0,0,0,1.225,1.512h1.238a3.113,3.113,0,0,1,0,6.225h-.675Zm-7.475-11.25,4.975,4.975h-3.763v8.775h-2.5v-8.775h-3.762Z" transform="translate(-315.75 -194.003)" fill="#6f6b69" fill-rule="evenodd"/>
</svg>
