<svg id="Outlined-order" xmlns="http://www.w3.org/2000/svg" width="22" height="22" viewBox="0 0 22 22">
  <rect id="Rectangle_13343" data-name="Rectangle 13343" width="22" height="22" fill="#21201f" opacity="0"/>
  <path id="Path_38637" data-name="Path 38637" d="M17.667,37.835H13.835a2.75,2.75,0,0,0-5.17,0H4.833A1.833,1.833,0,0,0,3,39.669V52.5a1.833,1.833,0,0,0,1.833,1.833H17.667A1.833,1.833,0,0,0,19.5,52.5V39.669a1.833,1.833,0,0,0-1.833-1.833ZM4.833,52.5V39.669H17.667V52.5ZM8.5,41.5H6.667v1.833H8.5ZM6.667,45.169H8.5V47H6.667ZM8.5,48.835H6.667v1.833H8.5ZM10.333,41.5h5.5v1.833h-5.5Zm5.5,3.667h-5.5V47h5.5Zm-5.5,3.667h5.5v1.833h-5.5Z" transform="translate(-0.25 -34.19)" fill="#21201f" fill-rule="evenodd"/>
</svg>
