<svg width="30" height="30" viewBox="0 0 30 30" fill="none" xmlns="http://www.w3.org/2000/svg">
<path d="M27.0092 22.75L23.8967 20.325V11.45C23.9156 11.3425 23.9156 11.2325 23.8967 11.125C23.8967 11.125 23.8967 11.0625 23.8967 11.025C23.8528 10.954 23.8026 10.887 23.7467 10.825L23.6717 10.725L23.5467 10.575L23.4342 10.4875L23.3342 10.4L16.2467 6.8625V5C16.2467 4.66848 16.115 4.35054 15.8806 4.11612C15.6461 3.8817 15.3282 3.75 14.9967 3.75C14.6652 3.75 14.3472 3.8817 14.1128 4.11612C13.8784 4.35054 13.7467 4.66848 13.7467 5V6.8625L6.78417 10.35L6.68417 10.4375L6.57167 10.525L6.44667 10.675L6.24667 10.825C6.23973 10.8915 6.23973 10.9585 6.24667 11.025C6.24667 11.025 6.24667 11.025 6.24667 11.125C6.2346 11.233 6.2346 11.342 6.24667 11.45V20.325L2.98417 22.75C2.72281 22.9526 2.55238 23.2505 2.51021 23.5785C2.46804 23.9065 2.55756 24.2379 2.75917 24.5C2.87562 24.6513 3.02517 24.7739 3.19634 24.8584C3.36752 24.9429 3.55578 24.987 3.74667 24.9875C4.02286 24.9866 4.29099 24.8943 4.50917 24.725L7.42167 22.425L14.4342 25.9375C14.5904 26.0117 14.7612 26.0502 14.9342 26.05C15.1064 26.0439 15.2759 26.0057 15.4342 25.9375L22.5717 22.425L25.4842 24.6875C25.7024 24.8568 25.9705 24.9491 26.2467 24.95C26.5049 24.9485 26.7564 24.8671 26.9665 24.7169C27.1766 24.5667 27.335 24.3551 27.4199 24.1112C27.5049 23.8673 27.5122 23.6031 27.4409 23.3549C27.3696 23.1066 27.2231 22.8866 27.0217 22.725L27.0092 22.75ZM14.9967 13.8875L14.5842 13.675L10.1342 11.4625L14.9967 9.0375L19.8592 11.4625L15.4092 13.675L14.9967 13.8875ZM8.59667 13.475L13.7467 16.05V22.825L8.59667 20.25V13.475ZM21.4092 20.25L16.2467 22.825V16.05L21.3967 13.475L21.4092 20.25Z" fill="#0B41CD"/>
</svg>
