<svg id="Outlined-chart_factor_parallelism" xmlns="http://www.w3.org/2000/svg" width="30" height="30" viewBox="0 0 30 30">
  <rect id="Rectangle_13842" data-name="Rectangle 13842" width="30" height="30" fill="#0b41cd" opacity="0"/>
  <path id="Path_38992" data-name="Path 38992" d="M516,51.752a2.5,2.5,0,1,1-2.5-2.5,2.558,2.558,0,0,1,1.025.225l5.237-3.75c0-.011,0-.022-.005-.033a1.552,1.552,0,0,1-.02-.2,2.5,2.5,0,1,1,2.5,2.5,2.558,2.558,0,0,1-1.025-.225l-5.237,3.75c0,.011,0,.022.005.033A1.54,1.54,0,0,1,516,51.752ZM508.5,43H506V60.5a2.507,2.507,0,0,0,2.5,2.5H531V60.5H508.5Zm12.275,10.225A2.558,2.558,0,0,0,519.75,53a2.5,2.5,0,1,0,2.5,2.5,1.54,1.54,0,0,0-.02-.2l-.005-.033,5.237-3.75a2.558,2.558,0,0,0,1.025.225,2.5,2.5,0,1,0-2.5-2.5,1.552,1.552,0,0,0,.02.2l.005.033Z" transform="translate(-503.5 -37.988)" fill="#0b41cd" fill-rule="evenodd"/>
</svg>
