<svg width="19" height="19" viewBox="0 0 24 24" fill="none" xmlns="http://www.w3.org/2000/svg">
  <rect id="Rectangle_13485" data-name="Rectangle 13485" width="19" height="19" fill="#6f6b69" opacity="0"/>
<path fill-rule="evenodd" clip-rule="evenodd" d="M21.4142 13.4142C21.0391 13.7893 20.5304 14 20 14H13V16.18C13.4194 16.3293 13.8003 16.5701 14.1151 16.8849C14.4299 17.1997 14.6707 17.5806 14.82 18H22V20H14.82C14.6098 20.5792 14.2264 21.0795 13.7218 21.4332C13.2173 21.7868 12.6161 21.9765 12 21.9765C11.3839 21.9765 10.7827 21.7868 10.2782 21.4332C9.77363 21.0795 9.3902 20.5792 9.18 20H2V18H9.18C9.32932 17.5806 9.57011 17.1997 9.8849 16.8849C10.1997 16.5701 10.5806 16.3293 11 16.18V14H4C3.46957 14 2.96086 13.7893 2.58579 13.4142C2.21071 13.0391 2 12.5304 2 12V4C2 3.46957 2.21071 2.96086 2.58579 2.58579C2.96086 2.21071 3.46957 2 4 2H20C20.5304 2 21.0391 2.21071 21.4142 2.58579C21.7893 2.96086 22 3.46957 22 4V12C22 12.5304 21.7893 13.0391 21.4142 13.4142ZM20 4H4V12H20V4ZM18 8C18 9.10457 17.1046 10 16 10C14.8954 10 14 9.10457 14 8C14 6.89543 14.8954 6 16 6C17.1046 6 18 6.89543 18 8Z" fill="#6f6b69"/>
</svg>
