<svg id="Outlined-folder" xmlns="http://www.w3.org/2000/svg" width="18" height="18" viewBox="0 0 18 18">
  <g id="Rectangle_13465" data-name="Rectangle 13465" fill="#0b41cd" stroke="#707070" stroke-width="1" opacity="0">
    <rect width="18" height="18" stroke="none"/>
    <rect x="0.5" y="0.5" width="17" height="17" fill="none"/>
  </g>
  <path id="Path_38744" data-name="Path 38744" d="M25.9,368.737H23.52l-.84-1.574A2.112,2.112,0,0,0,20.79,366H15.4a1.389,1.389,0,0,0-1.4,1.368v10.263A1.389,1.389,0,0,0,15.4,379H26.6a1.389,1.389,0,0,0,1.4-1.368v-6.842A2.04,2.04,0,0,0,25.9,368.737Zm-10.5,0v-1.368h5.46a.673.673,0,0,1,.63.411l.49.958Zm11.2,1.368v7.526H15.4v-7.526Z" transform="translate(-12 -363)" fill="#0b41cd"/>
</svg>
