<svg id="Filled-attach_file" xmlns="http://www.w3.org/2000/svg" width="20" height="20" viewBox="0 0 30 30"  fill="#0b41cd">
  <rect id="Rectangle_13373" data-name="Rectangle 13373" fill="#0b41cd" opacity="0"/>
  <path id="Path_38652" data-name="Path 38652" d="M241.5,96.25V110a5,5,0,0,1-10,0V95.625a3.125,3.125,0,1,1,6.25,0V108.75a1.25,1.25,0,0,1-2.5,0V96.25h-2.5v12.288a3.912,3.912,0,0,0,3.55,3.962,3.752,3.752,0,0,0,3.95-3.75V95.625a5.625,5.625,0,1,0-11.25,0V110a7.5,7.5,0,1,0,15,0V96.25Z" transform="translate(-221.5 -88.75)"
   fill="#0b41cd"/>
</svg>
