<svg width="42" height="43" viewBox="0 0 42 43" fill="none" xmlns="http://www.w3.org/2000/svg">
<g filter="url(#filter0_dd_1446_46543)">
<rect x="4" y="2.5" width="34" height="34" rx="2" fill="#0B41CD" shape-rendering="crispEdges"/>
<path fill-rule="evenodd" clip-rule="evenodd" d="M15 28.5H27C28.7 28.5 30 27.2 30 25.5V18.5H28V25.5C28 26.1 27.6 26.5 27 26.5H15C14.4 26.5 14 26.1 14 25.5V13.5C14 12.9 14.4 12.5 15 12.5H22V10.5H15C13.3 10.5 12 11.8 12 13.5V25.5C12 27.2 13.3 28.5 15 28.5ZM28.5 10.8C28.3 10.6 28.1 10.5 27.8 10.5C27.6 10.5 27.3 10.6 27.1 10.8L16 21.9V24.5H18.6L29.7 13.4C29.9 13.2 30 13 30 12.7C30 12.4 29.9 12.2 29.7 12L28.5 10.8Z" fill="white"/>
</g>
<defs>
<filter id="filter0_dd_1446_46543" x="0" y="0.5" width="42" height="42" filterUnits="userSpaceOnUse" color-interpolation-filters="sRGB">
<feFlood flood-opacity="0" result="BackgroundImageFix"/>
<feColorMatrix in="SourceAlpha" type="matrix" values="0 0 0 0 0 0 0 0 0 0 0 0 0 0 0 0 0 0 127 0" result="hardAlpha"/>
<feOffset dy="2"/>
<feGaussianBlur stdDeviation="2"/>
<feComposite in2="hardAlpha" operator="out"/>
<feColorMatrix type="matrix" values="0 0 0 0 0 0 0 0 0 0 0 0 0 0 0 0 0 0 0.11 0"/>
<feBlend mode="normal" in2="BackgroundImageFix" result="effect1_dropShadow_1446_46543"/>
<feColorMatrix in="SourceAlpha" type="matrix" values="0 0 0 0 0 0 0 0 0 0 0 0 0 0 0 0 0 0 127 0" result="hardAlpha"/>
<feOffset/>
<feGaussianBlur stdDeviation="0.5"/>
<feColorMatrix type="matrix" values="0 0 0 0 0 0 0 0 0 0 0 0 0 0 0 0 0 0 0.32 0"/>
<feBlend mode="normal" in2="effect1_dropShadow_1446_46543" result="effect2_dropShadow_1446_46543"/>
<feBlend mode="normal" in="SourceGraphic" in2="effect2_dropShadow_1446_46543" result="shape"/>
</filter>
</defs>
</svg>
