<svg width="24" height="24" viewBox="0 0 24 24" fill="none" xmlns="http://www.w3.org/2000/svg">
<path fill-rule="evenodd" clip-rule="evenodd" d="M3.82 4H16.54C17.54 4 18.36 4.82 18.36 5.82V14.91C18.36 15.91 17.54 16.73 16.54 16.73H10.18L4.73 20.37V16.73H3.82C2.82 16.73 2 15.91 2 14.91V5.82C2 4.82 2.82 4 3.82 4ZM8.58 10.64L8.24 12.6L10 11.68L11.76 12.6L11.42 10.64L12.84 9.25L10.88 8.96L10 7.18L9.12 8.96L7.16 9.25L8.58 10.64ZM20.1899 18.54V9.44995C21.1899 9.44995 22.0099 10.27 22.0099 11.27V18.54C22.0099 19.54 21.1899 20.36 20.1899 20.36H12.0099C11.0099 20.36 10.1899 19.54 10.1899 18.54H20.1899Z" fill="#FFFFFF"/>
</svg>
