<svg id="Outlined-circle_help" xmlns="http://www.w3.org/2000/svg" width="24" height="24" viewBox="0 0 24 24">
  <rect id="Rectangle_13395" data-name="Rectangle 13395" width="24" height="24" fill="#21201f" opacity="0"/>
  <path id="Path_38786" data-name="Path 38786" d="M297,30a8,8,0,1,1-8,8A8.024,8.024,0,0,1,297,30Zm0-2a10,10,0,1,0,10,10A10.029,10.029,0,0,0,297,28Zm-1,12.5V39.3a1.936,1.936,0,0,1,1-1.7l1.4-.7a1.149,1.149,0,0,0,.6-.9v-.6a.923.923,0,0,0-1-.9h-2a.987.987,0,0,0-1,.9v1.1h-2V35.4a2.9,2.9,0,0,1,2.9-2.9H298a2.989,2.989,0,0,1,3,2.9v.7a2.542,2.542,0,0,1-1.4,2.3l-1.3.6a.6.6,0,0,0-.3.6v.9Zm2,1.5v2h-2V42Z" transform="translate(-285 -26)" fill="#21201f" fill-rule="evenodd"/>
</svg>
