<svg width="24" height="24" viewBox="0 0 24 24" fill="none" xmlns="http://www.w3.org/2000/svg">
<path d="M19.9998 12C19.9998 11.66 19.9698 11.33 19.9298 11H21.9498C21.7498 8.99005 20.9498 7.15005 19.7398 5.67005L18.3098 7.10005C17.8998 6.57005 17.4198 6.10005 16.8998 5.69005L18.3298 4.26005C16.8498 3.05005 15.0098 2.25005 12.9998 2.05005V4.07005C12.6698 4.03005 12.3398 4.00005 11.9998 4.00005C11.6598 4.00005 11.3298 4.03005 10.9998 4.07005V2.05005C8.9898 2.25005 7.14981 3.05005 5.6698 4.26005L7.0998 5.69005C6.56981 6.10005 6.0998 6.58005 5.6898 7.10005L4.2598 5.67005C3.0498 7.15005 2.2498 8.99005 2.0498 11H4.0698C4.0298 11.33 3.9998 11.66 3.9998 12C3.9998 12.34 4.0298 12.67 4.0698 13H2.0498C2.2498 15.01 3.0498 16.85 4.2598 18.33L5.6898 16.9C6.0998 17.43 6.5798 17.9 7.0998 18.31L5.6698 19.74C7.14981 20.9501 8.9898 21.75 10.9998 21.9501V19.93C11.3298 19.9701 11.6598 20 11.9998 20C12.3398 20 12.6698 19.9701 12.9998 19.93V21.9501C15.0098 21.75 16.8498 20.9501 18.3298 19.74L16.8998 18.31C17.4298 17.9 17.8998 17.42 18.3098 16.9L19.7398 18.33C20.9498 16.85 21.7498 15.01 21.9498 13H19.9298C19.9698 12.67 19.9998 12.34 19.9998 12ZM14.2898 15.71L10.9998 12.42V6.00005H12.9998V11.59L15.7098 14.3L14.2998 15.71H14.2898Z" fill="#21201F"/>
</svg>
