<svg width="24" height="24" viewBox="0 0 24 24" fill="#022366" xmlns="http://www.w3.org/2000/svg">
<path fill-rule="evenodd" clip-rule="evenodd" d="M12.9998 4.05005V2.05005C14.9529 2.24126 16.8065 3.00288 18.3298 4.24005L16.8998 5.67005C15.7699 4.78789 14.4222 4.22809 12.9998 4.05005ZM7.0998 5.69007C8.22973 4.80791 9.5774 4.24811 10.9998 4.07007V2.07007C9.04674 2.26128 7.1931 3.0229 5.6698 4.26007L7.0998 5.69007ZM15.7098 14.2901L12.9998 11.5901V6.00006H10.9998V12.4101L14.2898 15.7101L15.7098 14.2901ZM4.0698 11C4.24785 9.57764 4.80765 8.22997 5.6898 7.10004L4.2598 5.67004C3.01544 7.19097 2.24677 9.04482 2.0498 11H4.0698ZM4.06982 13.0001C4.24787 14.4225 4.80767 15.7701 5.68982 16.9001L4.27982 18.3301C3.03546 16.8091 2.26679 14.9553 2.06982 13.0001H4.06982ZM19.9298 13.0001C19.7518 14.4225 19.192 15.7701 18.3098 16.9001L19.7398 18.3301C21.0022 16.8151 21.7885 14.9607 21.9998 13.0001H19.9298ZM19.9298 11C19.7518 9.57764 19.192 8.22997 18.3098 7.10004L19.7198 5.67004C20.9642 7.19097 21.7329 9.04482 21.9298 11H19.9298ZM16.8998 18.3101C15.7699 19.1922 14.4222 19.752 12.9998 19.9301V21.9301C14.955 21.7331 16.8089 20.9644 18.3298 19.7201L16.8998 18.3101ZM7.0998 18.3101C8.22973 19.1922 9.5774 19.752 10.9998 19.9301V22.0001C9.03916 21.7887 7.18477 21.0024 5.6698 19.7401L7.0998 18.3101Z" fill="#022366"/>
</svg>
