<svg width="24" height="24" viewBox="0 0 24 24" fill="none" xmlns="http://www.w3.org/2000/svg">
<path fill-rule="evenodd" clip-rule="evenodd" d="M2 17V5C2 4.46957 2.21071 3.96086 2.58579 3.58579C2.96086 3.21071 3.46957 3 4 3H7V19H4C3.46957 19 2.96086 18.7893 2.58579 18.4142C2.21071 18.0391 2 17.5304 2 17ZM13 19H9V3H15V12C14.4696 12 13.9609 12.2107 13.5858 12.5858C13.2107 12.9609 13 13.4696 13 14V19ZM20 3H17V12H22V5C22 4.46957 21.7893 3.96086 21.4142 3.58579C21.0391 3.21071 20.5304 3 20 3ZM20.8398 16.601C20.7964 16.6576 20.742 16.7049 20.6799 16.74L20.4599 16.89V17.2L20.6799 17.34C20.742 17.3751 20.7964 17.4224 20.8398 17.479C20.8832 17.5357 20.9147 17.6005 20.9324 17.6696C20.9502 17.7387 20.9538 17.8106 20.943 17.8812C20.9323 17.9517 20.9074 18.0193 20.8699 18.08L20.3199 19.08C20.2848 19.1421 20.2375 19.1965 20.1809 19.2399C20.1243 19.2833 20.0595 19.3148 19.9904 19.3325C19.9213 19.3503 19.8493 19.3539 19.7788 19.3431C19.7082 19.3324 19.6406 19.3075 19.5799 19.27L19.3599 19.13H19.2999L19.0899 19.25V19.5C19.0899 19.6459 19.032 19.7858 18.9288 19.8889C18.8257 19.9921 18.6858 20.05 18.5399 20.05H17.4399C17.294 20.05 17.1542 19.9921 17.051 19.8889C16.9479 19.7858 16.8899 19.6459 16.8899 19.5V19.25L16.7599 19.17L16.6199 19.09L16.3999 19.23C16.3392 19.2675 16.2716 19.2924 16.2011 19.3031C16.1305 19.3139 16.0586 19.3103 15.9895 19.2925C15.9204 19.2748 15.8556 19.2433 15.7989 19.1999C15.7423 19.1565 15.695 19.1021 15.6599 19.04L15.1099 18.04C15.0395 17.9161 15.02 17.7697 15.0555 17.6316C15.0909 17.4936 15.1785 17.3747 15.2999 17.3L15.5199 17.16V16.86L15.2999 16.72C15.2378 16.6849 15.1834 16.6376 15.1401 16.581C15.0967 16.5244 15.0652 16.4595 15.0474 16.3905C15.0297 16.3214 15.0261 16.2494 15.0368 16.1789C15.0475 16.1083 15.0724 16.0407 15.1099 15.98L15.6599 14.98C15.695 14.9179 15.7423 14.8635 15.7989 14.8201C15.8556 14.7768 15.9204 14.7452 15.9895 14.7275C16.0586 14.7098 16.1305 14.7062 16.2011 14.7169C16.2716 14.7276 16.3392 14.7525 16.3999 14.79L16.6199 14.93H16.6799C16.7451 14.8821 16.8155 14.8418 16.8899 14.81V14.56C16.8899 14.4141 16.9479 14.2742 17.051 14.1711C17.1542 14.068 17.294 14.01 17.4399 14.01H18.5399C18.6858 14.01 18.8257 14.068 18.9288 14.1711C19.032 14.2742 19.0899 14.4141 19.0899 14.56V14.83H19.1799C19.2477 14.8569 19.309 14.8978 19.3599 14.95L19.5799 14.81C19.6406 14.7725 19.7082 14.7476 19.7788 14.7369C19.8493 14.7262 19.9213 14.7298 19.9904 14.7475C20.0595 14.7652 20.1243 14.7968 20.1809 14.8401C20.2375 14.8835 20.2848 14.9379 20.3199 15L20.8699 16C20.9074 16.0607 20.9323 16.1283 20.943 16.1989C20.9538 16.2694 20.9502 16.3414 20.9324 16.4104C20.9147 16.4795 20.8832 16.5444 20.8398 16.601ZM17.3166 18.0127C17.5188 18.1479 17.7566 18.22 17.9999 18.22C18.3261 18.22 18.639 18.0904 18.8697 17.8598C19.1003 17.6291 19.2299 17.3162 19.2299 16.99C19.2299 16.7467 19.1578 16.5089 19.0226 16.3067C18.8875 16.1044 18.6954 15.9467 18.4706 15.8536C18.2459 15.7605 17.9985 15.7362 17.76 15.7836C17.5214 15.8311 17.3022 15.9482 17.1302 16.1203C16.9582 16.2923 16.841 16.5115 16.7935 16.75C16.7461 16.9886 16.7704 17.236 16.8635 17.4607C16.9566 17.6855 17.1143 17.8776 17.3166 18.0127Z" fill="#21201F"/>
</svg>
