<svg width="20" height="21" viewBox="0 0 20 21" fill="none" xmlns="http://www.w3.org/2000/svg">
<path fill-rule="evenodd" clip-rule="evenodd" d="M9.99935 2.16699C5.39698 2.16699 1.66602 5.89795 1.66602 10.5003C1.66602 15.1027 5.39698 18.8337 9.99935 18.8337C14.6017 18.8337 18.3327 15.1027 18.3327 10.5003C18.3327 5.89795 14.6017 2.16699 9.99935 2.16699ZM9.99935 3.83366C13.6812 3.83366 16.666 6.81843 16.666 10.5003C16.666 14.1822 13.6812 17.167 9.99935 17.167C6.31745 17.167 3.33268 14.1822 3.33268 10.5003C3.33682 6.82014 6.31916 3.83779 9.99935 3.83366ZM14.9993 8.35033L13.8243 7.16699L9.16602 11.8253L7.00768 9.67533L5.83268 10.8503L9.16602 14.1837L14.9993 8.35033Z" fill="#00A17C"/>
</svg>
