<svg id="Outlined-table_view" xmlns="http://www.w3.org/2000/svg" width="30" height="30" viewBox="0 0 30 30">
  <rect id="Rectangle_13617" data-name="Rectangle 13617" width="30" height="30" fill="#0b41cd" opacity="0.002"/>
  <path id="Path_39450" data-name="Path 39450" d="M957,354H939.5a2.507,2.507,0,0,0-2.5,2.5V374a2.507,2.507,0,0,0,2.5,2.5H957a2.507,2.507,0,0,0,2.5-2.5V356.5A2.507,2.507,0,0,0,957,354Zm0,2.5v3.75H945.75V356.5Zm-13.75,0v3.75H939.5V356.5ZM939.5,374V362.75h3.75V374Zm6.25,0V362.75H957V374Z" transform="translate(-933.25 -350.25)" fill="#0b41cd"/>
</svg>
