<svg width="24" height="24" viewBox="0 0 24 24" fill="none" xmlns="http://www.w3.org/2000/svg">
<path fill-rule="evenodd" clip-rule="evenodd" d="M19 12H16.95L13.67 11.98C13.2736 11.9813 12.8826 12.0719 12.5259 12.245C12.1693 12.4181 11.8563 12.6693 11.61 12.98H11C8.9547 13.03 6.91854 12.6906 5 11.98V13.7C5.58 14.18 7.73 14.98 11 14.98V16.98C8.9547 17.03 6.91854 16.6906 5 15.98V17.72C5.58 18.2 7.73 19 11 19V21C6.58 21 3 19.66 3 18V6C3 4.34 6.58 3 11 3C15.42 3 19 4.34 19 6V12ZM16.5 6C14.7422 5.27557 12.8501 4.93464 10.95 5C9.04959 4.92996 7.15645 5.27107 5.4 6C7.15777 6.72443 9.04992 7.06536 10.95 7C12.8504 7.07004 14.7435 6.72894 16.5 6ZM4.95 9.72C5.53 10.2 7.68 11 10.95 11C14.22 11 16.37 10.21 16.95 9.72V7.98C15.0315 8.6906 12.9953 9.02996 10.95 8.98C8.9047 9.02996 6.86854 8.6906 4.95 7.98V9.72ZM19.42 18.9798C19.6998 18.9803 19.9737 19.06 20.21 19.2098L20.2 19.2198C20.28 19.2712 20.3538 19.3316 20.42 19.3998C20.5839 19.5656 20.7044 19.7692 20.7709 19.9926C20.8375 20.216 20.848 20.4523 20.8016 20.6807C20.7552 20.9092 20.6533 21.1226 20.5048 21.3023C20.3564 21.482 20.166 21.6224 19.9504 21.7111C19.7349 21.7999 19.5008 21.8341 19.2689 21.811C19.0369 21.7878 18.8143 21.7079 18.6205 21.5783C18.4268 21.4487 18.2679 21.2734 18.158 21.0679C18.048 20.8624 17.9903 20.6329 17.99 20.3998C17.9912 20.2815 18.008 20.1638 18.04 20.0498L15.88 18.8198C15.6242 19.0491 15.2935 19.1771 14.95 19.1798C14.575 19.1747 14.2168 19.0234 13.9517 18.7582C13.6865 18.493 13.5352 18.1348 13.53 17.7598C13.53 17.3806 13.6807 17.0169 13.9489 16.7487C14.217 16.4805 14.5808 16.3298 14.96 16.3298C15.3054 16.3325 15.6373 16.4645 15.89 16.6998L18.05 15.4598C18.018 15.3493 18.0012 15.2349 18 15.1198C18.0029 14.839 18.0862 14.5648 18.24 14.3298C18.3962 14.0937 18.6189 13.9093 18.88 13.7998C19.1408 13.6982 19.4245 13.6705 19.7 13.7198C20.0556 13.7789 20.3754 13.9711 20.5946 14.2572C20.8137 14.5434 20.9159 14.9022 20.8803 15.2609C20.8446 15.6196 20.674 15.9514 20.4028 16.1889C20.1316 16.4263 19.7803 16.5518 19.42 16.5398C19.067 16.5366 18.7279 16.401 18.47 16.1598L16.32 17.3898C16.4001 17.63 16.4001 17.8897 16.32 18.1298L18.47 19.3498C18.7289 19.1115 19.0681 18.9794 19.42 18.9798ZM19.8514 14.6885C19.737 14.5741 19.5818 14.5098 19.42 14.5098H19.41C19.3312 14.5111 19.2535 14.528 19.1812 14.5593C19.1089 14.5907 19.0435 14.636 18.9887 14.6926C18.9339 14.7493 18.8908 14.8162 18.8619 14.8895C18.8329 14.9628 18.8187 15.041 18.82 15.1198C18.81 15.1727 18.81 15.227 18.82 15.2798C18.8299 15.3589 18.8553 15.4353 18.895 15.5044C18.9346 15.5735 18.9877 15.634 19.051 15.6825C19.1143 15.7309 19.1866 15.7662 19.2637 15.7863C19.3408 15.8065 19.4211 15.8111 19.5 15.7998C19.6604 15.7799 19.8064 15.697 19.9057 15.5695C20.0051 15.442 20.0498 15.2803 20.03 15.1198C20.03 14.9581 19.9658 14.8029 19.8514 14.6885ZM14.5187 18.1912C14.6331 18.3056 14.7882 18.3698 14.95 18.3698C15.1102 18.3648 15.2625 18.299 15.3758 18.1856C15.4891 18.0723 15.555 17.92 15.56 17.7598C15.56 17.5981 15.4958 17.4429 15.3814 17.3285C15.267 17.2141 15.1118 17.1498 14.95 17.1498C14.7882 17.1498 14.6331 17.2141 14.5187 17.3285C14.4043 17.4429 14.34 17.5981 14.34 17.7598C14.34 17.9216 14.4043 18.0768 14.5187 18.1912ZM18.81 20.3998C18.8125 20.5591 18.8762 20.7114 18.9879 20.8249C19.0997 20.9385 19.2508 21.0047 19.41 21.0098H19.42C19.5793 21.0047 19.7304 20.9385 19.8421 20.8249C19.9538 20.7114 20.0175 20.5591 20.02 20.3998C20.03 20.347 20.03 20.2927 20.02 20.2398C20.0102 20.1608 19.9847 20.0844 19.9451 20.0153C19.9054 19.9462 19.8524 19.8856 19.7891 19.8372C19.7258 19.7888 19.6535 19.7535 19.5764 19.7334C19.4993 19.7132 19.4189 19.7086 19.34 19.7198C19.1796 19.7398 19.0337 19.8227 18.9343 19.9502C18.8349 20.0777 18.7902 20.2394 18.81 20.3998Z" fill="#21201F"/>
</svg>
