<svg id="Outlined-analytics" xmlns="http://www.w3.org/2000/svg" width="30" height="30" viewBox="0 0 30 30">
  <rect id="Rectangle_13844" data-name="Rectangle 13844" width="30" height="30" fill="#0b41cd" opacity="0"/>
  <path id="Union_6" data-name="Union 6" d="M2.5,22.5A2.507,2.507,0,0,1,0,20V2.5A2.513,2.513,0,0,1,2.5,0H20a2.512,2.512,0,0,1,2.5,2.5V20A2.506,2.506,0,0,1,20,22.5Zm0-2.5H20V2.5H2.5ZM15,17.5V5h2.5V17.5Zm-5,0v-3.75h2.5V17.5Zm-5,0v-6.25H7.5V17.5Zm5-6.25v-2.5h2.5v2.5Z" transform="translate(3.752 3.748)" fill="#0b41cd"/>
</svg>
