<svg width="24" height="24" viewBox="0 0 24 24" fill="none" xmlns="http://www.w3.org/2000/svg">
<path fill-rule="evenodd" clip-rule="evenodd" d="M9.76207 3.40995L2.58207 10.59C2.20957 10.9647 2.00049 11.4716 2.00049 12C2.00049 12.5283 2.20957 13.0352 2.58207 13.41L9.76207 20.59C10.1368 20.9625 10.6437 21.1715 11.1721 21.1715C11.7004 21.1715 12.2073 20.9625 12.5821 20.59L14.6721 18.5L13.2621 17.09L11.1721 19.17L4.00207 12L11.1721 4.82995L13.2621 6.90995L14.6721 5.49995L12.5821 3.40995C12.2073 3.03745 11.7004 2.82837 11.1721 2.82837C10.6437 2.82837 10.1368 3.03745 9.76207 3.40995ZM16.1721 11H11.0002V13H16.1721V17L21.1721 12L16.1721 6.99995V11Z" fill="#21201F"/>
</svg>
