<svg id="Outlined-data_pull" xmlns="http://www.w3.org/2000/svg" width="26" height="26" viewBox="0 0 26 26">
  <rect id="Rectangle_14079" data-name="Rectangle 14079" width="26" height="26" fill="#544f4f" opacity="0"/>
  <path id="Path_39659" data-name="Path 39659" d="M834.917,200.167a2.171,2.171,0,0,1-1.083,1.874v5.709h3.25l-4.333,4.333-4.333-4.333h3.25v-5.709a2.166,2.166,0,1,1,3.25-1.874Zm-2.167-1.083a1.086,1.086,0,0,0-1.083,1.083,1.165,1.165,0,0,0,1.083,1.083,1.086,1.086,0,0,0,1.083-1.083A1.165,1.165,0,0,0,832.75,199.083ZM823,216.417a2.173,2.173,0,0,0,2.167,2.167h15.167a2.173,2.173,0,0,0,2.167-2.167V211h-2.167v5.417H825.167V211H823Z" transform="translate(-819.75 -194.75)" fill="#544f4f" fill-rule="evenodd"/>
</svg>
