<svg id="Outlined-clock_time_elapsed" xmlns="http://www.w3.org/2000/svg" width="26" height="26" viewBox="0 0 26 26">
  <rect id="Rectangle_13884" data-name="Rectangle 13884" width="26" height="26" fill="#544f4f" opacity="0"/>
  <path id="Path_39038" data-name="Path 39038" d="M293.913,36.05v2.167A8.667,8.667,0,0,1,292.829,55.5a8.577,8.577,0,0,1-5.308-1.831l-1.549,1.549a10.833,10.833,0,1,0,7.941-19.164Zm-2.167,2.188V36.072a10.833,10.833,0,0,0-5.774,2.372l1.549,1.549A8.6,8.6,0,0,1,291.746,38.238Zm0,2.091v6.944l3.564,3.575,1.538-1.538-2.936-2.925V40.329Zm-9.674,7.583h2.167a8.6,8.6,0,0,0,1.755,4.225l-1.528,1.549A10.829,10.829,0,0,1,282.072,47.913Zm2.372-7.941,1.549,1.549a8.6,8.6,0,0,0-1.777,4.225H282.05A10.829,10.829,0,0,1,284.444,39.972Z" transform="translate(-279.884 -33.884)" fill="#544f4f" fill-rule="evenodd"/>
</svg>
