<svg id="Outlined-attach_file" xmlns="http://www.w3.org/2000/svg" width="26" height="26" viewBox="0 0 26 26">
  <rect id="Rectangle_13370" data-name="Rectangle 13370" width="26" height="26" fill="#544f4f" opacity="0"/>
  <path id="Path_38640" data-name="Path 38640" d="M239.833,39.417V51.333a4.333,4.333,0,0,1-8.667,0V38.875a2.708,2.708,0,1,1,5.417,0V50.25a1.083,1.083,0,0,1-2.167,0V39.417H232.25V50.066a3.39,3.39,0,0,0,3.077,3.434,3.251,3.251,0,0,0,3.423-3.25V38.875a4.875,4.875,0,1,0-9.75,0V51.333a6.5,6.5,0,1,0,13,0V39.417Z" transform="translate(-222.5 -32.917)" fill="#544f4f"/>
</svg>
