<svg id="Filled-chart_factor_parallelism" fill="#0b41cd" xmlns="http://www.w3.org/2000/svg" width="20" height="20" viewBox="0 0 22 22">
  <rect id="Rectangle_13854" data-name="Rectangle 13854" fill="#0b41cd" opacity="0"/>
  <path id="Path_39022" data-name="Path 39022" d="M513.333,105.416a1.833,1.833,0,1,1-1.833-1.833,1.876,1.876,0,0,1,.752.165l3.841-2.75c0-.008,0-.017,0-.024a1.14,1.14,0,0,1-.015-.15,1.833,1.833,0,1,1,1.833,1.833,1.876,1.876,0,0,1-.752-.165l-3.841,2.75c0,.008,0,.017,0,.024A1.131,1.131,0,0,1,513.333,105.416ZM507.833,99H506v12.833a1.839,1.839,0,0,0,1.833,1.833h16.5v-1.833h-16.5Zm9,7.5a1.876,1.876,0,0,0-.752-.165,1.833,1.833,0,1,0,1.833,1.833,1.14,1.14,0,0,0-.015-.15l0-.024,3.841-2.75a1.876,1.876,0,0,0,.752.165,1.833,1.833,0,1,0-1.833-1.833,1.14,1.14,0,0,0,.015.15l0,.024Z" transform="translate(-504.167 -95.322)" 
  fill="#0b41cd" fill-rule="evenodd"/>
</svg>
