<svg width="88" height="24" viewBox="0 0 88 24" fill="none" xmlns="http://www.w3.org/2000/svg">
<path fill-rule="evenodd" clip-rule="evenodd" d="M2.865 6H12.405C13.155 6 13.77 6.615 13.77 7.365V14.1825C13.77 14.9325 13.155 15.5475 12.405 15.5475H7.635L3.5475 18.2775V15.5475H2.865C2.115 15.5475 1.5 14.9325 1.5 14.1825V7.365C1.5 6.615 2.115 6 2.865 6ZM6.435 10.98L6.18 12.45L7.5 11.76L8.82 12.45L8.565 10.98L9.63 9.9375L8.16 9.72L7.5 8.385L6.84 9.72L5.37 9.9375L6.435 10.98ZM15.1425 16.905V10.0875C15.8925 10.0875 16.5075 10.7025 16.5075 11.4525V16.905C16.5075 17.655 15.8925 18.27 15.1425 18.27H9.00746C8.25746 18.27 7.64246 17.655 7.64246 16.905H15.1425Z" fill="#0B41CD"/>
<path d="M71.799 9.108C71.232 9.108 70.773 8.874 70.521 8.451V9H69.702V2.7H70.521V5.085C70.737 4.734 71.214 4.428 71.808 4.428C72.888 4.428 73.653 5.292 73.653 6.651V6.885C73.653 8.244 72.879 9.108 71.799 9.108ZM71.646 8.325C72.375 8.325 72.807 7.776 72.807 6.894V6.642C72.807 5.76 72.375 5.211 71.646 5.211C70.917 5.211 70.485 5.76 70.485 6.642V6.894C70.485 7.776 70.917 8.325 71.646 8.325ZM78.752 6.588V6.93H75.62C75.62 7.803 76.106 8.388 76.817 8.388C77.393 8.388 77.717 8.082 77.915 7.605L78.653 7.884C78.347 8.64 77.762 9.108 76.817 9.108C75.62 9.108 74.792 8.181 74.792 6.885V6.651C74.792 5.346 75.638 4.428 76.826 4.428C77.906 4.428 78.752 5.184 78.752 6.588ZM76.826 5.139C76.151 5.139 75.728 5.607 75.638 6.318H77.942C77.888 5.589 77.429 5.139 76.826 5.139ZM82.3843 4.536V5.247H81.1783V7.731C81.1783 8.118 81.3583 8.352 81.7453 8.352C81.9703 8.352 82.1593 8.298 82.3843 8.19V8.955C82.1773 9.045 81.9163 9.108 81.5743 9.108C80.7553 9.108 80.3593 8.613 80.3593 7.749V5.247H79.5133V4.536H80.3593V3.681L81.1783 3.303V4.536H82.3843ZM84.6981 9.108C83.9151 9.108 83.3571 8.595 83.3571 7.812V7.785C83.3571 6.921 84.0231 6.516 84.8331 6.354L85.9941 6.129V6.003C85.9941 5.481 85.6701 5.121 85.0941 5.121C84.5721 5.121 84.2481 5.391 84.0771 5.886L83.3931 5.616C83.6181 4.914 84.2301 4.428 85.0941 4.428C86.2011 4.428 86.7951 5.076 86.7951 5.994V8.001C86.7951 8.244 86.9121 8.415 87.1551 8.415C87.2451 8.415 87.3531 8.388 87.4431 8.343V9C87.2901 9.072 87.1191 9.108 86.9031 9.108C86.4171 9.108 86.1021 8.802 86.0571 8.334C85.8321 8.766 85.4451 9.108 84.6981 9.108ZM84.8781 8.415C85.5711 8.415 85.9941 7.902 85.9941 7.011V6.732L84.9591 6.939C84.4641 7.047 84.1761 7.29 84.1761 7.749V7.758C84.1761 8.136 84.4551 8.415 84.8781 8.415Z" fill="#0B41CD"/>
<path d="M32.5748 17.21C31.6148 17.21 30.7598 16.985 30.0098 16.535C29.2598 16.085 28.6748 15.46 28.2548 14.66C27.8448 13.85 27.6398 12.925 27.6398 11.885V11.615C27.6398 10.575 27.8498 9.655 28.2698 8.855C28.6898 8.045 29.2698 7.415 30.0098 6.965C30.7598 6.515 31.6098 6.29 32.5598 6.29C33.5098 6.29 34.3348 6.5 35.0348 6.92C35.7448 7.33 36.3098 7.92 36.7298 8.69L35.1998 9.755C34.8998 9.245 34.5398 8.85 34.1198 8.57C33.7098 8.29 33.2098 8.15 32.6198 8.15C32.0298 8.15 31.5098 8.3 31.0598 8.6C30.6198 8.89 30.2798 9.295 30.0398 9.815C29.7998 10.335 29.6798 10.925 29.6798 11.585V11.915C29.6798 12.575 29.7998 13.165 30.0398 13.685C30.2798 14.205 30.6198 14.615 31.0598 14.915C31.5098 15.205 32.0298 15.35 32.6198 15.35C33.4998 15.35 34.2248 15.005 34.7948 14.315V13.115H32.3948V11.45H36.7598V15.095C35.7198 16.505 34.3248 17.21 32.5748 17.21ZM40.6388 17H38.6437V6.5H40.6388V17ZM42.7842 17V6.5H46.7892C47.7792 6.5 48.5642 6.76 49.1442 7.28C49.7242 7.8 50.0142 8.54 50.0142 9.5C50.0142 10.46 49.7242 11.205 49.1442 11.735C48.5642 12.255 47.7792 12.515 46.7892 12.515H44.7792V17H42.7842ZM46.6692 10.79C47.0992 10.79 47.4342 10.685 47.6742 10.475C47.9142 10.255 48.0342 9.93 48.0342 9.5C48.0342 9.08 47.9142 8.76 47.6742 8.54C47.4342 8.32 47.0992 8.21 46.6692 8.21H44.7792V10.79H46.6692ZM59.3168 17H58.3718L57.4718 14.27H53.0018L52.1018 17H51.1568L54.6968 6.5H55.7468L59.3168 17ZM55.2368 7.52L53.2718 13.445H57.2018L55.2368 7.52ZM61.3016 7.97C61.1016 7.97 60.9266 7.9 60.7766 7.76C60.6366 7.61 60.5666 7.44 60.5666 7.25C60.5666 7.05 60.6366 6.88 60.7766 6.74C60.9266 6.6 61.1016 6.53 61.3016 6.53C61.5016 6.53 61.6716 6.6 61.8116 6.74C61.9516 6.88 62.0216 7.05 62.0216 7.25C62.0216 7.45 61.9516 7.62 61.8116 7.76C61.6716 7.9 61.5016 7.97 61.3016 7.97ZM61.7066 17H60.8966V9.56H61.7066V17Z" fill="#0B41CD"/>
</svg>
