<svg width="25" height="25" viewBox="0 0 25 25" fill="none" xmlns="http://www.w3.org/2000/svg">
<path fill-rule="evenodd" clip-rule="evenodd" d="M17.0852 16.855C18.0852 16.855 18.9052 16.035 18.9052 15.035V5.945C18.9052 4.945 18.0852 4.125 17.0852 4.125H4.35516C3.35516 4.125 2.53516 4.945 2.53516 5.945V15.035C2.53516 16.035 3.35516 16.855 4.35516 16.855H5.26516V20.495L10.7152 16.855H17.0852ZM4.36516 15.025V5.945H17.0952V15.035H10.1752L9.72516 15.345L7.09516 17.085V15.025H4.36516ZM20.7251 9.57495V18.665H10.7251C10.7251 19.665 11.5451 20.485 12.5451 20.485H20.7251C21.7251 20.485 22.5451 19.665 22.5451 18.665V11.395C22.5451 10.395 21.7251 9.57495 20.7251 9.57495ZM11.9651 10.7649L12.3051 12.7249L10.5451 11.7949L8.78508 12.7249L9.12508 10.7649L7.70508 9.38494L9.66508 9.09494L10.5451 7.31494L11.4251 9.09494L13.3851 9.38494L11.9651 10.7649Z" fill="#21201F"/>
<path fill-rule="evenodd" clip-rule="evenodd" d="M17.0852 16.855C18.0852 16.855 18.9052 16.035 18.9052 15.035V5.945C18.9052 4.945 18.0852 4.125 17.0852 4.125H4.35516C3.35516 4.125 2.53516 4.945 2.53516 5.945V15.035C2.53516 16.035 3.35516 16.855 4.35516 16.855H5.26516V20.495L10.7152 16.855H17.0852ZM4.36516 15.025V5.945H17.0952V15.035H10.1752L9.72516 15.345L7.09516 17.085V15.025H4.36516ZM20.7251 9.57495V18.665H10.7251C10.7251 19.665 11.5451 20.485 12.5451 20.485H20.7251C21.7251 20.485 22.5451 19.665 22.5451 18.665V11.395C22.5451 10.395 21.7251 9.57495 20.7251 9.57495ZM11.9651 10.7649L12.3051 12.7249L10.5451 11.7949L8.78508 12.7249L9.12508 10.7649L7.70508 9.38494L9.66508 9.09494L10.5451 7.31494L11.4251 9.09494L13.3851 9.38494L11.9651 10.7649Z" fill="#21201F"/>
</svg>
