<svg id="Outlined-book_research" xmlns="http://www.w3.org/2000/svg" width="19" height="19" viewBox="0 0 19 19">
  <rect id="Rectangle_13485" data-name="Rectangle 13485" width="19" height="19" fill="#6f6b69" opacity="0"/>
  <path id="Path_38794" data-name="Path 38794" d="M925.1,363.795h7.774a1.588,1.588,0,0,1,1.583,1.583v8.708a1.588,1.588,0,0,1-1.583,1.583h-7.687a1.505,1.505,0,0,1-1.2-.491.781.781,0,0,0-.618-.3.794.794,0,0,0-.792.792,1.588,1.588,0,0,0,1.583,1.583h7.125v1.583h-7.125A3.166,3.166,0,0,1,921,375.67V365.378A2.378,2.378,0,0,1,923.5,363,2.326,2.326,0,0,1,925.1,363.795Zm-2.517,9.643a2.27,2.27,0,0,1,1.583,0v-8.059a.792.792,0,1,0-1.583,0Zm3.167.649h7.125v-8.708H925.75Zm3.167-2.375a.792.792,0,1,1-1.583,0v-3.167h1.583Zm2.375,0a.792.792,0,1,1-1.583,0v-3.167h1.583Zm-3.958-4.75h1.583v.792h-1.583Zm2.375,0h1.583v.792h-1.583Z" transform="translate(-917.833 -361.417)" fill="#6f6b69" fill-rule="evenodd"/>
</svg>
