<svg id="Outlined-book_research" xmlns="http://www.w3.org/2000/svg" width="30" height="30" viewBox="0 0 30 30">
  <rect id="Rectangle_13485" data-name="Rectangle 13485" width="30" height="30" fill="#0b41cd" opacity="0"/>
  <path id="Path_38794" data-name="Path 38794" d="M927.475,364.255H939.75a2.507,2.507,0,0,1,2.5,2.5v13.75a2.507,2.507,0,0,1-2.5,2.5H927.612a2.377,2.377,0,0,1-1.887-.775,1.233,1.233,0,0,0-.975-.475,1.254,1.254,0,0,0-1.25,1.25,2.507,2.507,0,0,0,2.5,2.5h11.25v2.5H926a5,5,0,0,1-5-5v-16.25a3.755,3.755,0,0,1,3.95-3.75A3.673,3.673,0,0,1,927.475,364.255ZM923.5,379.48a3.585,3.585,0,0,1,2.5,0V366.755a1.25,1.25,0,0,0-2.5,0Zm5,1.025h11.25v-13.75H928.5Zm5-3.75a1.25,1.25,0,0,1-2.5,0v-5h2.5Zm3.75,0a1.25,1.25,0,0,1-2.5,0v-5h2.5Zm-6.25-7.5h2.5v1.25H931Zm3.75,0h2.5v1.25h-2.5Z" transform="translate(-916 -360.5)" fill="#0b41cd" fill-rule="evenodd"/>
</svg>
