<svg id="Outlined-book_research" xmlns="http://www.w3.org/2000/svg" width="24" height="24" viewBox="0 0 24 24">
  <rect id="Rectangle_13485" data-name="Rectangle 13485" width="24" height="24" fill="#0b41cd" opacity="0"/>
  <path id="Path_38794" data-name="Path 38794" d="M926.18,364H936a2.006,2.006,0,0,1,2,2v11a2.006,2.006,0,0,1-2,2h-9.71a1.9,1.9,0,0,1-1.51-.62A.986.986,0,0,0,924,378a1,1,0,0,0-1,1,2.006,2.006,0,0,0,2,2h9v2h-9a4,4,0,0,1-4-4V366a3,3,0,0,1,3.16-3A2.938,2.938,0,0,1,926.18,364ZM923,376.184a2.868,2.868,0,0,1,2,0V366a1,1,0,0,0-2,0Zm4,.82h9V366h-9Zm4-3a1,1,0,0,1-2,0v-4h2Zm3,0a1,1,0,0,1-2,0v-4h2Zm-5-6h2v1h-2Zm3,0h2v1h-2Z" transform="translate(-917 -361)" fill="#0b41cd" fill-rule="evenodd"/>
</svg>
