<svg width="20" height="21" viewBox="0 0 20 21" fill="none" xmlns="http://www.w3.org/2000/svg">
<path fill-rule="evenodd" clip-rule="evenodd" d="M4.41435 6.86783L6.38018 8.83366H1.66602V4.11949L3.21602 5.66949C4.72852 3.55116 7.20435 2.16699 9.99935 2.16699C14.0243 2.16699 17.391 5.03366 18.166 8.83366H16.4577C15.7077 5.95866 13.0993 3.83366 9.99935 3.83366C7.66352 3.83366 5.60685 5.04199 4.41435 6.86783ZM13.6188 12.167H18.3329V16.8812L16.7829 15.3312C15.2704 17.4495 12.7946 18.8337 9.9996 18.8337C5.9746 18.8337 2.60793 15.967 1.83293 12.167H3.54127C4.29127 15.042 6.8996 17.167 9.9996 17.167C12.3363 17.167 14.3921 15.9587 15.5854 14.1328L13.6188 12.167Z" fill="#1382FA"/>
</svg>
