<svg id="Outlined-notification" xmlns="http://www.w3.org/2000/svg" width="24" height="24" viewBox="0 0 24 24">
  <rect id="Rectangle_13663" data-name="Rectangle 13663" width="24" height="24" fill="rgba(255,255,255,0)"/>
  <path id="Path_39602" data-name="Path 39602" d="M19,57v7h2v2H3V64H5V57a6.99,6.99,0,0,1,5-6.7V50a2,2,0,0,1,4,0v.3A6.99,6.99,0,0,1,19,57ZM7,64H17V57A5,5,0,0,0,7,57Zm5,5a3.079,3.079,0,0,0,3-2H9A3.079,3.079,0,0,0,12,69Z" transform="translate(0 -46)" fill="#21201f" fill-rule="evenodd"/>
</svg>
