<svg id="Outlined-data" xmlns="http://www.w3.org/2000/svg" width="22" height="22" viewBox="0 0 22 22">
  <rect id="Rectangle_14075" data-name="Rectangle 14075" width="22" height="22" fill="#21201f" opacity="0"/>
  <path id="Path_39662" data-name="Path 39662" d="M614.667,201.75c0-1.522-3.282-2.75-7.333-2.75S600,200.228,600,201.75v11c0,1.522,3.282,2.75,7.333,2.75s7.333-1.228,7.333-2.75Zm-7.333-.917a12.231,12.231,0,0,1,5.088.917,14.576,14.576,0,0,1-10.175,0A12.23,12.23,0,0,1,607.333,200.833Zm5.5,11.66c-.532.44-2.5,1.173-5.5,1.173s-4.968-.733-5.5-1.173v-1.577a16.959,16.959,0,0,0,11,0Zm0-3.667c-.532.44-2.5,1.173-5.5,1.173s-4.968-.733-5.5-1.173V207.25a16.958,16.958,0,0,0,11,0Zm-5.5-2.493c-3,0-4.968-.733-5.5-1.173v-1.577a16.958,16.958,0,0,0,11,0v1.577C612.3,205.6,610.331,206.333,607.333,206.333Z" transform="translate(-596.333 -196.25)" fill="#21201f"/>
</svg>
