<svg id="Outlined-file_code" xmlns="http://www.w3.org/2000/svg" width="120" height="120" viewBox="0 0 120 120">
  <rect id="Rectangle_13496" data-name="Rectangle 13496" width="120" height="120" fill="#eae8e5" opacity="0"/>
  <path id="Path_38760" data-name="Path 38760" d="M119,528.019l22,22.5a9.994,9.994,0,0,1,3,7v57.5a10,10,0,0,1-10,10H74a10,10,0,0,1-10-10v-80a9.993,9.993,0,0,1,10-10h38a8.391,8.391,0,0,1,7,3Zm-45,87h60v-55H109v-25H74Zm25-40,3.55,3.55-11.5,11.45,11.5,11.45L99,605.019l-15-15Zm10,30-3.55-3.55,11.5-11.45-11.5-11.45,3.55-3.55,15,15Z" transform="translate(-44 -514.999)" fill="#eae8e5" fill-rule="evenodd"/>
</svg>
