<svg id="Outlined-network_drive" xmlns="http://www.w3.org/2000/svg" width="19" height="19" viewBox="0 0 19 19">
  <rect id="Rectangle_14051" data-name="Rectangle 14051" width="19" height="19" fill="#21201f" opacity="0"/>
  <path id="Path_39646" data-name="Path 39646" d="M749.369,42.036a1.583,1.583,0,0,1-1.119.464h-5.542v1.726a2.376,2.376,0,0,1,1.441,1.441h5.684V47.25h-5.684a2.375,2.375,0,0,1-4.465,0H734V45.667h5.684a2.375,2.375,0,0,1,1.441-1.441V42.5h-5.542A1.584,1.584,0,0,1,734,40.917V34.583A1.584,1.584,0,0,1,735.583,33H748.25a1.584,1.584,0,0,1,1.583,1.583v6.333A1.584,1.584,0,0,1,749.369,42.036Zm-1.119-7.453H735.583v6.333H748.25Zm-1.583,3.167a1.583,1.583,0,1,1-1.583-1.583A1.583,1.583,0,0,1,746.667,37.75Z" transform="translate(-732.417 -31.417)" fill="#21201f" fill-rule="evenodd"/>
</svg>
