<svg id="Outlined-folder" xmlns="http://www.w3.org/2000/svg" width="19" height="19" viewBox="0 0 19 19">
  <rect id="Rectangle_13465" data-name="Rectangle 13465" width="19" height="19" fill="#212020" opacity="0"/>
  <path id="Path_38744" data-name="Path 38744" d="M27.458,369.167H24.767l-.95-1.821A2.384,2.384,0,0,0,21.679,366h-6.1A1.588,1.588,0,0,0,14,367.583v11.875a1.588,1.588,0,0,0,1.583,1.583H28.25a1.588,1.588,0,0,0,1.583-1.583v-7.917A2.333,2.333,0,0,0,27.458,369.167Zm-11.875,0v-1.583h6.175a.761.761,0,0,1,.713.475l.554,1.108ZM28.25,370.75v8.708H15.583V370.75Z" transform="translate(-12.417 -363.625)" fill="#212020"/>
</svg>
