<svg id="Outlined-heart" xmlns="http://www.w3.org/2000/svg" width="22" height="22" viewBox="0 0 22 22">
  <rect id="Rectangle_14032" data-name="Rectangle 14032" width="22" height="22" fill="#dbd6d1" opacity="0"/>
  <path id="Path_39751" data-name="Path 39751" d="M771.015,218a5.466,5.466,0,0,0-3.821,1.536l-.028.027-.028-.027a5.511,5.511,0,0,0-7.53-.1,5.38,5.38,0,0,0,.061,7.73l7.5,7.332,7.5-7.332A5.276,5.276,0,0,0,771.015,218Zm0,1.833a3.6,3.6,0,0,1,2.463.95,3.239,3.239,0,0,1,1.021,2.366,3.735,3.735,0,0,1-1.117,2.709l-6.216,6.078-6.216-6.078a3.739,3.739,0,0,1-1.117-2.709,3.24,3.24,0,0,1,1.022-2.366,3.6,3.6,0,0,1,2.462-.95,3.649,3.649,0,0,1,2.567,1.04l1.3,1.221,1.281-1.243A3.633,3.633,0,0,1,771.015,219.833Z" transform="translate(-756.251 -215.25)" fill="#dbd6d1" fill-rule="evenodd"/>
</svg>
