<svg width="24" height="24" viewBox="0 0 24 24" fill="none" xmlns="http://www.w3.org/2000/svg">
<path fill-rule="evenodd" clip-rule="evenodd" d="M9.82 4C9.41 2.84 8.31 2 7 2C5.69 2 4.6 2.84 4.18 4H2V6H4.18C4.59 7.16 5.69 8 7 8C8.31 8 9.4 7.16 9.82 6H22V4H9.82ZM17 9C15.7 9 14.6 9.84 14.18 11H2V13H14.18C14.59 14.16 15.69 15 17 15C18.31 15 19.4 14.16 19.82 13H22V11H19.82C19.41 9.84 18.31 9 17 9ZM8.18 18C8.6 16.84 9.7 16 11 16C12.31 16 13.41 16.84 13.82 18H22V20H13.82C13.4 21.16 12.31 22 11 22C9.69 22 8.59 21.16 8.18 20H2V18H8.18Z" fill="#21201F"/>
</svg>
