<svg width="24" height="24" viewBox="0 0 24 24" fill="none" xmlns="http://www.w3.org/2000/svg">
<path fill-rule="evenodd" clip-rule="evenodd" d="M5.29751 7.641L7.65651 10H1.99951V4.343L3.85951 6.203C5.67451 3.661 8.64551 2 11.9995 2C16.8295 2 20.8695 5.44 21.7995 10H19.7495C18.8495 6.55 15.7195 4 11.9995 4C9.19651 4 6.72851 5.45 5.29751 7.641ZM16.3428 14H21.9998V19.657L20.1398 17.797C18.3248 20.339 15.3538 22 11.9998 22C7.16981 22 3.12981 18.56 2.19981 14H4.24981C5.14981 17.45 8.27981 20 11.9998 20C14.8038 20 17.2708 18.55 18.7028 16.359L16.3428 14Z" fill="#21201F"/>
</svg>
