<svg id="Group_1" data-name="Group 1" xmlns="http://www.w3.org/2000/svg" width="61" height="32" viewBox="0 0 61 32">
  <path id="Path_38626" data-name="Path 38626" d="M133.728,41.318v-5.8a1.642,1.642,0,0,1,.4-1.162,1.444,1.444,0,0,1,2.058,0,1.594,1.594,0,0,1,.4,1.162v5.8h1.7V35.153a2.974,2.974,0,0,0-.686-2.086,2.414,2.414,0,0,0-1.876-.747,2.671,2.671,0,0,0-1.19.262,2.04,2.04,0,0,0-.808.654v-4.41h-1.7V41.318Z" transform="translate(-96 -20)" fill="#0b41cd"/>
  <path id="Path_38627" data-name="Path 38627" d="M125.951,37.855a2.466,2.466,0,0,0,.427,1.531,1.433,1.433,0,0,0,1.167.523c.838,0,1.365-.546,1.563-1.632l1.578.369a3.5,3.5,0,0,1-.983,2.116,3,3,0,0,1-2.158.754A3.053,3.053,0,0,1,125.15,40.5a4.008,4.008,0,0,1-.907-2.755V36.085a3.969,3.969,0,0,1,.907-2.755,3.053,3.053,0,0,1,2.395-1.016,3,3,0,0,1,2.158.754,3.5,3.5,0,0,1,.983,2.116l-1.578.369c-.2-1.085-.717-1.632-1.563-1.632a1.422,1.422,0,0,0-1.167.523,2.4,2.4,0,0,0-.427,1.531Z" transform="translate(-96 -20)" fill="#0b41cd"/>
  <path id="Path_38628" data-name="Path 38628" d="M119.66,39.91a1.413,1.413,0,0,1-1.159-.531,2.5,2.5,0,0,1-.419-1.539V35.977a2.465,2.465,0,0,1,.419-1.532,1.545,1.545,0,0,1,2.318,0,2.45,2.45,0,0,1,.42,1.532v1.862a2.5,2.5,0,0,1-.42,1.539A1.392,1.392,0,0,1,119.66,39.91Zm0,1.616a3.237,3.237,0,0,0,1.708-.454,3.105,3.105,0,0,0,1.159-1.308,4.516,4.516,0,0,0,.412-1.986v-1.7a4.516,4.516,0,0,0-.412-1.986,3.061,3.061,0,0,0-1.159-1.308,3.39,3.39,0,0,0-3.416,0,3.119,3.119,0,0,0-1.159,1.308,4.53,4.53,0,0,0-.411,1.986v1.7a4.53,4.53,0,0,0,.411,1.986,3.073,3.073,0,0,0,1.159,1.308A3.242,3.242,0,0,0,119.66,41.526Z" transform="translate(-96 -20)" fill="#0b41cd"/>
  <path id="Path_38629" data-name="Path 38629" d="M110.556,34.1v-3.64h1.716a1.316,1.316,0,0,1,1.067.446,2.681,2.681,0,0,1,0,2.755,1.315,1.315,0,0,1-1.067.446Zm0,7.219V35.746h1.456a1.137,1.137,0,0,1,.877.292,1.629,1.629,0,0,1,.336.939l.48,4.341h1.708l-.511-4.5a2.539,2.539,0,0,0-.343-1.208,1.637,1.637,0,0,0-.808-.631,3,3,0,0,0,1.228-1.047,3.3,3.3,0,0,0,.449-1.847,3.338,3.338,0,0,0-.838-2.394,3.063,3.063,0,0,0-2.311-.877h-3.416V41.318Z" transform="translate(-96 -20)" fill="#0b41cd"/>
  <path id="Path_38630" data-name="Path 38630" d="M157,36,143.222,52H109.778L96,36l13.778-16h33.436ZM142.482,50.376,154.865,36,142.482,21.624H110.51L98.135,36,110.51,50.376Z" transform="translate(-96 -20)" fill="#0b41cd"/>
  <path id="Path_38653" data-name="Path 38653" d="M145.845,34.084a3.073,3.073,0,0,0-1.159-1.308,3.389,3.389,0,0,0-3.416,0,3.105,3.105,0,0,0-1.159,1.308,4.516,4.516,0,0,0-.412,1.986v1.7a4.516,4.516,0,0,0,.412,1.986,3.06,3.06,0,0,0,1.159,1.308,3.169,3.169,0,0,0,1.708.454,3.243,3.243,0,0,0,1.708-.454,2.678,2.678,0,0,0,1.075-1.224,3.8,3.8,0,0,0,.3-.954l-1.571-.362a2.168,2.168,0,0,1-.358.885,1.393,1.393,0,0,1-1.159.531,1.412,1.412,0,0,1-1.159-.531,2.5,2.5,0,0,1-.42-1.539v-.639h4.865v-1.17A4.611,4.611,0,0,0,145.845,34.084Zm-2.867-.192a1.408,1.408,0,0,1,1.159.523,2.5,2.5,0,0,1,.419,1.378H141.4a2.374,2.374,0,0,1,.42-1.378A1.387,1.387,0,0,1,142.978,33.891Z" transform="translate(-96 -20)" fill="#0b41cd"/>
</svg>
