<svg width="24" height="24" viewBox="0 0 24 24" fill="none" xmlns="http://www.w3.org/2000/svg">
<path fill-rule="evenodd" clip-rule="evenodd" d="M4 4H20C20.5304 4 21.0391 4.21071 21.4142 4.58579C21.7893 4.96086 22 5.46957 22 6V13H15C14.8096 13.0079 14.621 12.9613 14.4562 12.8657C14.2915 12.77 14.1575 12.6292 14.07 12.46L13.07 10.39L10.92 15.39C10.85 15.5574 10.7358 15.7026 10.5896 15.8101C10.4434 15.9175 10.2707 15.9832 10.09 16H10C9.83529 15.9991 9.67335 15.9576 9.52855 15.8791C9.38375 15.8006 9.26059 15.6876 9.17 15.55L7.46 13H4V18H14V20H4C3.46957 20 2.96086 19.7893 2.58579 19.4142C2.21071 19.0391 2 18.5304 2 18V6C2 5.46957 2.21071 4.96086 2.58579 4.58579C2.96086 4.21071 3.46957 4 4 4ZM15.62 11H20V6H4V11H8C8.1664 10.9992 8.33037 11.0399 8.47705 11.1185C8.62373 11.1971 8.74848 11.311 8.84 11.45L9.84 12.91L12.11 7.61C12.1845 7.43387 12.3079 7.28278 12.4657 7.17467C12.6234 7.06655 12.8089 7.00593 13 7C13.1847 7.00056 13.3656 7.05224 13.5227 7.14932C13.6798 7.2464 13.8069 7.38509 13.89 7.55L15.62 11ZM21.47 18.15L21.68 18.29C21.744 18.3232 21.8004 18.3693 21.8456 18.4254C21.8909 18.4815 21.9239 18.5464 21.9427 18.616C21.9615 18.6856 21.9657 18.7583 21.9549 18.8296C21.9441 18.9009 21.9186 18.9691 21.88 19.03L21.33 20.03C21.2949 20.0921 21.2476 20.1465 21.191 20.1899C21.1343 20.2332 21.0695 20.2648 21.0004 20.2825C20.9313 20.3002 20.8594 20.3038 20.7888 20.2931C20.7183 20.2824 20.6507 20.2575 20.59 20.22L20.37 20.08L20.1 20.25V20.49C20.1 20.6359 20.042 20.7758 19.9389 20.8789C19.8358 20.982 19.6959 21.04 19.55 21.04H18.45C18.3041 21.04 18.1642 20.982 18.0611 20.8789C17.9579 20.7758 17.9 20.6359 17.9 20.49V20.25L17.63 20.08L17.41 20.22C17.3489 20.2561 17.2814 20.2799 17.2111 20.2899C17.1409 20.2999 17.0693 20.296 17.0006 20.2783C16.9319 20.2607 16.8673 20.2297 16.8106 20.1871C16.7539 20.1445 16.7061 20.0911 16.67 20.03L16.12 19.03C16.053 18.9043 16.0364 18.7579 16.0735 18.6204C16.1107 18.4829 16.1988 18.3648 16.32 18.29L16.53 18.15V17.85L16.32 17.71C16.256 17.6768 16.1996 17.6307 16.1544 17.5746C16.1091 17.5185 16.0761 17.4536 16.0573 17.384C16.0384 17.3144 16.0343 17.2417 16.0451 17.1704C16.0559 17.0991 16.0814 17.0309 16.12 16.97L16.67 15.97C16.7051 15.9079 16.7524 15.8535 16.809 15.8101C16.8656 15.7667 16.9305 15.7352 16.9996 15.7175C17.0686 15.6997 17.1406 15.6961 17.2111 15.7069C17.2817 15.7176 17.3493 15.7425 17.41 15.78L17.63 15.92L17.9 15.75V15.51C17.9 15.3641 17.9579 15.2242 18.0611 15.1211C18.1642 15.0179 18.3041 14.96 18.45 14.96H19.55C19.6959 14.96 19.8358 15.0179 19.9389 15.1211C20.042 15.2242 20.1 15.3641 20.1 15.51V15.78C20.1314 15.8035 20.1673 15.8209 20.2043 15.8387C20.2616 15.8664 20.3214 15.8953 20.37 15.95L20.59 15.81C20.6507 15.7725 20.7183 15.7476 20.7888 15.7369C20.8594 15.7261 20.9313 15.7297 21.0004 15.7475C21.0695 15.7652 21.1343 15.7967 21.191 15.8401C21.2476 15.8835 21.2949 15.9379 21.33 16L21.88 17C21.9157 17.0616 21.9389 17.1298 21.9482 17.2004C21.9575 17.2711 21.9527 17.3428 21.9341 17.4116C21.9155 17.4804 21.8835 17.5449 21.8398 17.6012C21.7962 17.6576 21.7419 17.7047 21.68 17.74L21.47 17.88V18.15ZM18.3063 19.0144C18.512 19.1504 18.7535 19.2219 19 19.22C19.3245 19.22 19.6358 19.0918 19.8662 18.8633C20.0966 18.6348 20.2274 18.3245 20.23 18C20.234 17.7535 20.1644 17.5114 20.0301 17.3047C19.8958 17.0979 19.703 16.9359 19.4762 16.8393C19.2494 16.7426 18.999 16.7158 18.7569 16.7622C18.5147 16.8086 18.292 16.926 18.1169 17.0996C17.9419 17.2732 17.8226 17.4951 17.7742 17.7368C17.7259 17.9785 17.7507 18.2292 17.8455 18.4568C17.9402 18.6843 18.1007 18.8785 18.3063 19.0144Z" fill="#ffffff"/>
</svg>
