<svg id="Outlined-monitor_settings" xmlns="http://www.w3.org/2000/svg" width="30" height="30" viewBox="0 0 30 30">
  <rect id="Rectangle_13860" data-name="Rectangle 13860" width="30" height="30" fill="#0b41cd" opacity="0"/>
  <path id="Path_38983" data-name="Path 38983" d="M172.5,207h20a2.5,2.5,0,0,1,2.5,2.5v8.75h-8.75a1.247,1.247,0,0,1-1.162-.675l-1.25-2.588-2.688,6.25a1.249,1.249,0,0,1-1.038.763H180a1.253,1.253,0,0,1-1.038-.562l-2.137-3.187H172.5v6.25H185V227H172.5a2.5,2.5,0,0,1-2.5-2.5v-15a2.5,2.5,0,0,1,2.5-2.5Zm14.525,8.75H192.5V209.5h-20v6.25h5a1.254,1.254,0,0,1,1.05.563l1.25,1.825,2.838-6.625a1.222,1.222,0,0,1,2.225-.075Zm7.313,8.938.262.175a.645.645,0,0,1,.329.408.649.649,0,0,1-.079.518l-.687,1.25a.666.666,0,0,1-.174.2.671.671,0,0,1-.5.129.678.678,0,0,1-.249-.091l-.275-.175-.337.212v.3a.687.687,0,0,1-.687.687h-1.375a.687.687,0,0,1-.687-.687v-.3l-.337-.212-.275.175a.68.68,0,0,1-.249.087.663.663,0,0,1-.262-.015.643.643,0,0,1-.237-.114.677.677,0,0,1-.176-.2l-.687-1.25a.7.7,0,0,1,.25-.925l.262-.175v-.375l-.262-.175a.645.645,0,0,1-.329-.408.649.649,0,0,1,.079-.518l.688-1.25a.666.666,0,0,1,.174-.2.657.657,0,0,1,.5-.129.657.657,0,0,1,.249.091l.275.175.337-.212v-.3a.687.687,0,0,1,.688-.687h1.375a.687.687,0,0,1,.688.687v.338a.732.732,0,0,0,.13.074.593.593,0,0,1,.208.139l.275-.175a.657.657,0,0,1,.249-.091.661.661,0,0,1,.676.329l.688,1.25a.668.668,0,0,1,.085.25.677.677,0,0,1-.017.265.7.7,0,0,1-.118.236.665.665,0,0,1-.2.174l-.262.175Zm-3.955,1.08a1.551,1.551,0,0,0,.867.257,1.539,1.539,0,0,0,1.537-1.525,1.551,1.551,0,1,0-2.4,1.268Z" transform="translate(-167.5 -203.25)" fill="#0b41cd" fill-rule="evenodd"/>
</svg>
