<svg id="Outlined-clock_time_elapsed" xmlns="http://www.w3.org/2000/svg" width="30" height="30" viewBox="0 0 30 30">
  <rect id="Rectangle_13884" data-name="Rectangle 13884" width="30" height="30" fill="#6f6b69" opacity="0"/>
  <path id="Path_39038" data-name="Path 39038" d="M295.737,36.05v2.5a10,10,0,0,1-1.25,19.938,9.9,9.9,0,0,1-6.125-2.112l-1.787,1.787a12.5,12.5,0,1,0,9.162-22.113Zm-2.5,2.525v-2.5a12.5,12.5,0,0,0-6.662,2.737l1.787,1.788A9.924,9.924,0,0,1,293.237,38.575Zm0,2.413V49l4.113,4.125,1.775-1.775-3.388-3.375V40.988Zm-11.162,8.75h2.5a9.927,9.927,0,0,0,2.025,4.875L284.838,56.4A12.494,12.494,0,0,1,282.075,49.738Zm2.737-9.163,1.787,1.788a9.919,9.919,0,0,0-2.05,4.875h-2.5A12.5,12.5,0,0,1,284.813,40.575Z" transform="translate(-279.551 -33.551)" fill="#6f6b69" fill-rule="evenodd"/>
</svg>
