<svg id="Outlined-settings" xmlns="http://www.w3.org/2000/svg" width="19" height="19" viewBox="0 0 19 19">
  <rect id="Rectangle_13765" data-name="Rectangle 13765" width="19" height="19" fill="#212020" opacity="0"/>
  <path id="Path_38693" data-name="Path 38693" d="M11.332,1263.3v-.713H8.165v1.742l-.871.4a3.151,3.151,0,0,1-.47.245c-.06.024-.115.047-.163.071l-.792.554L5,1265.117l-.633-.4-1.583,2.771.633.4.871.554-.079.95v.633l.079,1.029-.871.475-.633.4,1.583,2.771.633-.4.871-.475.792.554a1.391,1.391,0,0,1,.317.158,1.816,1.816,0,0,0,.317.158l.871.475v1.662h3.167v-1.742l.871-.4a2.77,2.77,0,0,0,.47-.23c.06-.032.116-.063.163-.087l.792-.554.871.475.633.237,1.583-2.771-.633-.4-.871-.475.079-.95v-.633l-.079-.95.871-.475.633-.4-1.583-2.771-.633.4-.871.475-.792-.554a1.816,1.816,0,0,1-.317-.158,1.392,1.392,0,0,0-.317-.158l-.871-.475ZM8.165,1261h3.167a1.588,1.588,0,0,1,1.583,1.583v.713a6.962,6.962,0,0,1,.792.475l.633-.4a1.529,1.529,0,0,1,.792-.238,1.633,1.633,0,0,1,1.346.792l1.583,2.771a1.5,1.5,0,0,1-.554,2.138l-.633.4v.95l.633.4a1.535,1.535,0,0,1,.554,2.138l-1.583,2.771a1.505,1.505,0,0,1-2.138.554l-.633-.4c-.119.079-.257.158-.4.238s-.277.158-.4.237v.713a1.588,1.588,0,0,1-1.583,1.583H8.165a1.588,1.588,0,0,1-1.583-1.583v-.713a6.961,6.961,0,0,1-.792-.475l-.633.317a1.527,1.527,0,0,1-.792.237,1.632,1.632,0,0,1-1.346-.792l-1.583-2.771a1.5,1.5,0,0,1,.554-2.137l.633-.317v-.95l-.633-.4a1.535,1.535,0,0,1-.554-2.138l1.583-2.771a1.505,1.505,0,0,1,2.137-.554l.633.4c.119-.079.257-.158.4-.238s.277-.158.4-.237v-.713A1.588,1.588,0,0,1,8.165,1261Zm-1.979,8.708a3.562,3.562,0,1,0,3.562-3.562A3.548,3.548,0,0,0,6.186,1269.708Zm1.583,0a1.979,1.979,0,1,1,1.979,1.979A1.96,1.96,0,0,1,7.769,1269.708Z" transform="translate(-0.403 -1260.208)" fill="#212020" fill-rule="evenodd"/>
</svg>
