<svg id="Outlined-settings" xmlns="http://www.w3.org/2000/svg" width="20" height="20" viewBox="0 0 20 20">
  <rect id="Rectangle_13765" data-name="Rectangle 13765" width="20" height="20" fill="#21201f" opacity="0"/>
  <path id="Path_38693" data-name="Path 38693" d="M11.866,1263.417v-.75H8.532v1.833l-.917.417a3.311,3.311,0,0,1-.495.258c-.063.025-.122.05-.172.075l-.833.583-.917-.5-.667-.417-1.667,2.917.667.417.917.583-.083,1v.667l.083,1.083-.917.5-.667.417,1.667,2.917L5.2,1275l.917-.5.833.583a1.466,1.466,0,0,1,.333.167,1.911,1.911,0,0,0,.333.167l.917.5v1.75h3.333v-1.833l.917-.417a2.9,2.9,0,0,0,.495-.242c.064-.033.122-.067.172-.092l.833-.583.917.5.667.25,1.667-2.917-.667-.417-.917-.5.083-1v-.667l-.083-1,.917-.5.667-.417-1.667-2.917-.667.417-.917.5-.833-.583a1.911,1.911,0,0,1-.333-.167,1.471,1.471,0,0,0-.333-.167l-.917-.5ZM8.532,1261h3.333a1.672,1.672,0,0,1,1.667,1.667v.75a7.329,7.329,0,0,1,.833.5l.667-.417a1.608,1.608,0,0,1,.833-.25,1.719,1.719,0,0,1,1.417.833L18.949,1267a1.584,1.584,0,0,1-.583,2.25l-.667.417v1l.667.417a1.616,1.616,0,0,1,.583,2.25l-1.667,2.917a1.585,1.585,0,0,1-2.25.583l-.667-.417c-.125.083-.271.167-.417.25s-.292.167-.417.25v.75a1.672,1.672,0,0,1-1.667,1.667H8.532a1.672,1.672,0,0,1-1.667-1.667v-.75a7.328,7.328,0,0,1-.833-.5l-.667.333a1.608,1.608,0,0,1-.833.25,1.718,1.718,0,0,1-1.417-.833l-1.667-2.917a1.584,1.584,0,0,1,.583-2.25l.667-.333v-1l-.667-.417a1.616,1.616,0,0,1-.583-2.25l1.667-2.917a1.585,1.585,0,0,1,2.25-.583l.667.417c.125-.083.271-.167.417-.25s.292-.167.417-.25v-.75A1.672,1.672,0,0,1,8.532,1261Zm-2.083,9.167a3.75,3.75,0,1,0,3.75-3.75A3.734,3.734,0,0,0,6.449,1270.167Zm1.667,0a2.083,2.083,0,1,1,2.083,2.083A2.063,2.063,0,0,1,8.116,1270.167Z" transform="translate(-0.361 -1260.167)" fill="#21201f" fill-rule="evenodd"/>
</svg>
