<svg id="Outlined-project" xmlns="http://www.w3.org/2000/svg" width="22" height="22" viewBox="0 0 22 22">
  <rect id="Rectangle_13811" data-name="Rectangle 13811" width="22" height="22" fill="#21201f" opacity="0"/>
  <path id="Path_38704" data-name="Path 38704" d="M469.5,1459.323v-3.978a2.74,2.74,0,0,0-.807-1.943l-2.594-2.594a2.758,2.758,0,0,0-1.943-.807h-7.489a1.84,1.84,0,0,0-1.833,1.833v3.667a1.84,1.84,0,0,0-1.833,1.833v9.167a1.84,1.84,0,0,0,1.833,1.833H469.5a1.84,1.84,0,0,0,1.833-1.833v-4.583a2.7,2.7,0,0,0-1.833-2.594Zm-12.833-7.489h7.452a.925.925,0,0,1,.352.064.967.967,0,0,1,.3.2l2.594,2.594a.831.831,0,0,1,.2.3.89.89,0,0,1,.068.348v3.823h-2.163l-1.1-2.108a2.744,2.744,0,0,0-2.475-1.558h-5.225Zm-1.833,5.5h7.15a.926.926,0,0,1,.825.55l.642,1.283h-8.617ZM469.5,1466.5H454.833V1461H469.5Z" transform="translate(-451.167 -1448.167)" fill="#21201f"/>
</svg>
