<svg id="Outlined-book_research" xmlns="http://www.w3.org/2000/svg" width="22" height="22" viewBox="0 0 22 22">
  <rect id="Rectangle_13485" data-name="Rectangle 13485" width="22" height="22" fill="#21201f" opacity="0"/>
  <path id="Path_38794" data-name="Path 38794" d="M925.748,363.92h9a1.839,1.839,0,0,1,1.833,1.833v10.083a1.839,1.839,0,0,1-1.833,1.833h-8.9a1.743,1.743,0,0,1-1.384-.568.9.9,0,0,0-.715-.348.919.919,0,0,0-.917.917,1.839,1.839,0,0,0,1.833,1.833h8.25v1.833h-8.25A3.666,3.666,0,0,1,921,377.67V365.754a2.753,2.753,0,0,1,2.9-2.75A2.694,2.694,0,0,1,925.748,363.92Zm-2.915,11.165a2.629,2.629,0,0,1,1.833,0v-9.332a.917.917,0,1,0-1.833,0Zm3.667.752h8.25V365.754H926.5Zm3.667-2.75a.917.917,0,1,1-1.833,0V369.42h1.833Zm2.75,0a.917.917,0,1,1-1.833,0V369.42h1.833Zm-4.583-5.5h1.833v.917h-1.833Zm2.75,0h1.833v.917h-1.833Z" transform="translate(-917.333 -361.167)" fill="#21201f" fill-rule="evenodd"/>
</svg>
