<svg id="Outlined-analytics" xmlns="http://www.w3.org/2000/svg" width="22" height="22" viewBox="0 0 22 22">
  <rect id="Rectangle_13844" data-name="Rectangle 13844" width="22" height="22" fill="#212020" opacity="0"/>
  <path id="Union_6" data-name="Union 6" d="M1.834,16.5A1.838,1.838,0,0,1,0,14.67V1.838A1.844,1.844,0,0,1,1.834,0H14.666A1.842,1.842,0,0,1,16.5,1.838V14.67A1.836,1.836,0,0,1,14.666,16.5Zm0-1.832H14.666V1.838H1.834ZM11,12.838V3.67h1.834v9.168Zm-3.666,0v-2.75H9.166v2.75Zm-3.666,0V8.254H5.5v4.584ZM7.332,8.254V6.42H9.166V8.254Z" transform="translate(2.752 2.748)" fill="#212020"/>
</svg>
