<svg id="Outlined-folder_shared" xmlns="http://www.w3.org/2000/svg" width="30" height="30" viewBox="0 0 30 30">
  <rect id="Rectangle_13469" data-name="Rectangle 13469" width="30" height="30" fill="#6f6b69" opacity="0"/>
  <path id="Path_38738" data-name="Path 38738" d="M259.25,371H255l-1.5-2.875A3.764,3.764,0,0,0,250.125,366H240.5a2.507,2.507,0,0,0-2.5,2.5v18.75a2.507,2.507,0,0,0,2.5,2.5h20a2.507,2.507,0,0,0,2.5-2.5v-12.5A3.683,3.683,0,0,0,259.25,371Zm-18.75,0v-2.5h9.75a1.2,1.2,0,0,1,1.125.75l.875,1.75Zm20,2.5v13.75h-20V373.5Z" transform="translate(-235.5 -363.5)" fill="#6f6b69"/>
  <path id="Path_38739" data-name="Path 38739" d="M250.971,378.711h-.081a2.343,2.343,0,0,1-2.275-2.315v-.081A2.336,2.336,0,0,1,250.971,374h.081a2.336,2.336,0,0,1,2.275,2.315v.155a2.343,2.343,0,0,1-2.356,2.241Z" transform="translate(-232.846 -361.5)" fill="#6f6b69"/>
  <path id="Path_38740" data-name="Path 38740" d="M249.41,378.846h3.978a1.814,1.814,0,0,1,1.575.99l.788,1.7H247l.835-1.7a1.721,1.721,0,0,1,1.575-.99Z" transform="translate(-233.25 -360.288)" fill="#6f6b69"/>
</svg>
