<svg id="Outlined-user" xmlns="http://www.w3.org/2000/svg" width="20" height="20" viewBox="0 0 20 20">
  <rect id="Rectangle_13998" data-name="Rectangle 13998" width="20" height="20" fill="#544f4f" opacity="0"/>
  <path id="Path_39746" data-name="Path 39746" d="M13.458,43.482h-.125a1.824,1.824,0,0,0-1.85,1.815v.075a1.816,1.816,0,0,0,1.75,1.807h.1a1.833,1.833,0,0,0,1.875-1.757V45.29a1.824,1.824,0,0,0-1.75-1.807Zm-2.482-.507A3.334,3.334,0,0,1,13.333,42h.125a3.332,3.332,0,0,1,3.208,3.29v.283a3.332,3.332,0,0,1-3.333,3.173h-.125A3.332,3.332,0,0,1,10,45.415v-.083A3.33,3.33,0,0,1,10.976,42.976ZM19.8,55.325h1.867l-1.575-3.156a3.334,3.334,0,0,0-2.983-1.84H9.558a3.333,3.333,0,0,0-2.983,1.84L5,55.333H6.867l1.208-2.415A1.667,1.667,0,0,1,9.6,52h7.5a1.667,1.667,0,0,1,1.492.916Z" transform="translate(-3.333 -38.667)" fill="#544f4f" fill-rule="evenodd"/>
</svg>
