<svg id="Outlined-folder" xmlns="http://www.w3.org/2000/svg" width="26" height="26" viewBox="0 0 26 26">
  <rect id="Rectangle_13465" data-name="Rectangle 13465" width="26" height="26" fill="#544f4f" opacity="0"/>
  <path id="Path_38744" data-name="Path 38744" d="M32.417,370.333H28.733l-1.3-2.492A3.262,3.262,0,0,0,24.508,366H16.167A2.173,2.173,0,0,0,14,368.167v16.25a2.173,2.173,0,0,0,2.167,2.167H33.5a2.173,2.173,0,0,0,2.167-2.167V373.583A3.192,3.192,0,0,0,32.417,370.333Zm-16.25,0v-2.167h8.45a1.041,1.041,0,0,1,.975.65l.758,1.517ZM33.5,372.5v11.917H16.167V372.5Z" transform="translate(-11.833 -362.75)" fill="#544f4f"/>
</svg>
