<svg id="Outlined-user" xmlns="http://www.w3.org/2000/svg" width="26" height="26" viewBox="0 0 26 26">
  <rect id="Rectangle_13998" data-name="Rectangle 13998" width="26" height="26" fill="#544f4f" opacity="0"/>
  <path id="Path_39746" data-name="Path 39746" d="M16,43.927h-.163a2.371,2.371,0,0,0-2.4,2.36v.1A2.361,2.361,0,0,0,15.7,48.734h.13a2.383,2.383,0,0,0,2.438-2.284v-.173A2.372,2.372,0,0,0,16,43.927Zm-3.227-.659A4.335,4.335,0,0,1,15.833,42H16a4.332,4.332,0,0,1,4.171,4.276v.368a4.332,4.332,0,0,1-4.333,4.125h-.162A4.332,4.332,0,0,1,11.5,46.439v-.108A4.329,4.329,0,0,1,12.769,43.268ZM24.24,59.323h2.427l-2.047-4.1a4.334,4.334,0,0,0-3.878-2.393H10.926a4.333,4.333,0,0,0-3.878,2.393L5,59.333H7.427L9,56.194A2.167,2.167,0,0,1,10.98,55h9.75a2.167,2.167,0,0,1,1.939,1.191Z" transform="translate(-2.833 -37.667)" fill="#544f4f" fill-rule="evenodd"/>
</svg>
