<svg id="Outlined-user_group" xmlns="http://www.w3.org/2000/svg" width="30" height="30" viewBox="0 0 30 30">
  <rect id="Rectangle_14000" data-name="Rectangle 14000" width="30" height="30" fill="#6f6b69" opacity="0"/>
  <path id="Path_39743" data-name="Path 39743" d="M125.125,52.75h-.15a4.351,4.351,0,0,1-4.225-4.3V48.3a4.338,4.338,0,0,1,4.375-4.3h.15a4.338,4.338,0,0,1,4.225,4.3v.288a4.35,4.35,0,0,1-4.375,4.162ZM123.4,47.6a1.8,1.8,0,0,0-.147.7v.15a1.851,1.851,0,0,0,1.775,1.8h.1A1.85,1.85,0,0,0,127,48.55V48.3a1.851,1.851,0,0,0-1.775-1.8h-.1a1.813,1.813,0,0,0-1.728,1.1Zm10.328,5.154a4.351,4.351,0,0,1-2.625-1.012,6.8,6.8,0,0,0,.9-3.15V48.3a6.768,6.768,0,0,0-.888-3.312A4.361,4.361,0,0,1,133.875,44h.15a4.338,4.338,0,0,1,4.225,4.3v.288a4.35,4.35,0,0,1-4.375,4.162Zm5.6,3.015a3.367,3.367,0,0,1,1.209,1.323L142,60.25h-6l-2-4.325a4.2,4.2,0,0,0-.45-.675h4.063A3.36,3.36,0,0,1,139.329,55.765Zm-10.466-.515h-7.387a3.2,3.2,0,0,0-2.925,1.838L117,60.25h16.25l-1.462-3.162a3.364,3.364,0,0,0-2.925-1.838Z" transform="translate(-114.5 -36.5)" fill="#6f6b69" fill-rule="evenodd"/>
</svg>
