<svg id="Outlined-validation_range" xmlns="http://www.w3.org/2000/svg" width="30" height="30" viewBox="0 0 30 30">
  <rect id="Rectangle_14279" data-name="Rectangle 14279" width="30" height="30" fill="#0b41cd" opacity="0"/>
  <path id="Path_39261" data-name="Path 39261" d="M313.2,191.5,308,186h10.4Zm-17.438,3.556a2.531,2.531,0,0,1,1.838-.806h20.8a2.531,2.531,0,0,1,1.838.806A2.833,2.833,0,0,1,321,197v8.25a2.833,2.833,0,0,1-.762,1.944A2.531,2.531,0,0,1,318.4,208H297.6a2.531,2.531,0,0,1-1.838-.806A2.833,2.833,0,0,1,295,205.25V197A2.833,2.833,0,0,1,295.762,195.056ZM297.6,205.25h3.9V197h-3.9Zm6.5-8.25v8.25h7.8V197Zm10.4,8.25h3.9V197h-3.9Z" transform="translate(-293 -182)" fill="#0b41cd" fill-rule="evenodd"/>
</svg>
