<svg id="Outlined-user" xmlns="http://www.w3.org/2000/svg" width="20" height="20" viewBox="0 0 20 20">
  <rect id="Rectangle_13998" data-name="Rectangle 13998" width="20" height="20" fill="#21201f" opacity="0"/>
  <path id="Path_39746" data-name="Path 39746" d="M13.12,43.334H13a1.856,1.856,0,0,0-.676.118,1.767,1.767,0,0,0-.576.352,1.64,1.64,0,0,0-.387.533,1.553,1.553,0,0,0-.138.631v.068a1.582,1.582,0,0,0,.491,1.13,1.8,1.8,0,0,0,1.189.5H13a1.828,1.828,0,0,0,1.245-.446,1.606,1.606,0,0,0,.555-1.136v-.12a1.589,1.589,0,0,0-.493-1.128A1.807,1.807,0,0,0,13.12,43.334Zm-2.383-.456A3.313,3.313,0,0,1,13,42h.12a3.3,3.3,0,0,1,2.172.9,2.9,2.9,0,0,1,.908,2.057v.255a2.92,2.92,0,0,1-.989,2.029A3.318,3.318,0,0,1,13,48.071h-.12a3.3,3.3,0,0,1-2.186-.917A2.9,2.9,0,0,1,9.8,45.073V45A2.905,2.905,0,0,1,10.737,42.878Zm8.471,11.114H21l-1.512-2.841a3.08,3.08,0,0,0-1.181-1.21,3.362,3.362,0,0,0-1.683-.447H9.376a3.362,3.362,0,0,0-1.683.447,3.08,3.08,0,0,0-1.181,1.21L5,54H6.792l1.16-2.174a1.542,1.542,0,0,1,.6-.611A1.683,1.683,0,0,1,9.416,51h7.2a1.682,1.682,0,0,1,.841.222,1.542,1.542,0,0,1,.591.6Z" transform="translate(-3 -38)" fill="#21201f" fill-rule="evenodd"/>
</svg>
