<svg width="24" height="24" viewBox="0 0 24 24" fill="none" xmlns="http://www.w3.org/2000/svg">
<path fill-rule="evenodd" clip-rule="evenodd" d="M1 12C1 12 4 4 12 4C20 4 23 12 23 12C23 12 20 20 12 20C4 20 1 12 1 12ZM20.808 12C19.944 10.268 17.276 6 12 6C6.745 6 4.058 10.283 3.192 12C4.056 13.732 6.724 18 12 18C17.255 18 19.942 13.717 20.808 12ZM12 7C9.23858 7 7 9.23858 7 12C7 14.7614 9.23858 17 12 17C14.7614 17 17 14.7614 17 12C17 9.23858 14.7614 7 12 7ZM15 12C15 10.3431 13.6569 9 12 9C10.3431 9 9 10.3431 9 12C9 13.6569 10.3431 15 12 15C13.6569 15 15 13.6569 15 12Z" fill="#21201F"/>
</svg>
